{"title":"Damage.2009.DvDRiP.XViD.AC3(5.1).Optional MultiSub.Zen_Bud","uid":5809767,"size":1483466304,"categoryP":"video","categoryS":"movies","magnet":"?xt=urn:btih:a09030c96117b1c9495ca2503a1b84c379eec3a5&amp;dn=Damage.2009.DvDRiP.XViD.AC3%285.1%29.Optional+MultiSub.Zen_Bud&amp;tr=udp%3A%2F%2Ftracker.openbittorrent.com%3A80&amp;tr=udp%3A%2F%2Fopen.demonii.com%3A1337&amp;tr=udp%3A%2F%2Ftracker.coppersurfer.tk%3A6969&amp;tr=udp%3A%2F%2Fexodus.desync.com%3A6969","seeders":0,"leechers":0,"uploader":"Zen_Bud","files":-1,"time":1283585164,"description":"\nComplete name                    : Damage.2009.avi\nFormat                           : AVI\n\nFile size                        : 1.37 GiB\nDuration                         : 1h 53mn\nOverall bit rate                 : 1 727 Kbps\n\nVideo\n\nFormat                           : MPEG-4 Visual\nCodec ID/Hint                    : XviD\nDuration                         : 1h 53mn\nBit rate                         : 1 268 Kbps\nWidth                            : 720 pixels\nHeight                           : 576 pixels\nDisplay aspect ratio             : 16:9\nStream size                      : 1.01 GiB (73%)\nWriting library                  : XviD 1.1.2 (UTC 2006-11-01)\n\nAudio\n\nFormat                           : AC-3\nDuration                         : 1h 53mn\nBit rate                         : 448 Kbps\nChannel(s)                       : 6 channels\nChannel positions                : Front: L C R, Side: L R, LFE\nSampling rate                    : 48.0 KHz\nBit depth                        : 16 bits\nStream size                      : 364 MiB (26%)\n\nText #1\nLanguage                         : Swedish\n\nText #2\nLanguage                         : Norwegian\n\nText #3\nLanguage                         : Finnish","torrent":{"xt":"urn:btih:a09030c96117b1c9495ca2503a1b84c379eec3a5","amp;dn":"Damage.2009.DvDRiP.XViD.AC3%285.1%29.Optional+MultiSub.Zen_Bud","amp;tr":["udp%3A%2F%2Ftracker.openbittorrent.com%3A80","udp%3A%2F%2Fopen.demonii.com%3A1337","udp%3A%2F%2Ftracker.coppersurfer.tk%3A6969","udp%3A%2F%2Fexodus.desync.com%3A6969"],"infoHash":"a09030c96117b1c9495ca2503a1b84c379eec3a5","infoHashBuffer":{"type":"Buffer","data":[160,144,48,201,97,23,177,201,73,92,162,80,58,27,132,195,121,238,195,165]},"announce":[],"urlList":[]}}